#!OML:ASF F:\VICON\USERDATA\INSTALL\rory3\rory3.ASF
:FULLY-SPECIFIED
:DEGREES
19
root -0.6419760317479691 17.68320093248506 -13.63869065038759 -1.443402326311638 6.873764402984101 -3.8860754810843834
lfemur -23.751495920870408 -3.5018230004608584 -21.614798867659587
ltibia 40.959604633339474
lfoot -11.770491996728364 -10.71139388743888
ltoes -1.5494390239154843
rfemur -7.6380753301989905 -2.109073517608749 27.04960375529271
rtibia 96.09898865247399
rfoot 21.073189087599005 -13.16358962457693
rtoes 16.75529106259753
lowerback 16.497294635484977 1.0708685913804965 2.7687665359482985
upperback -0.08104018777185096 2.0672180383900507 1.1520152444739202
thorax -9.314926447008249 0.8915203793086182 -0.8248265632379427
lowerneck -18.957109094300737 -5.346237068944437 -1.6914257463877636
upperneck 15.2428908125415 -7.620285747627456 4.051617609656949
head 8.059281610746092 -3.300166925302631 0.6760169325131471
lclavicle -1.7288339579140553e-15 1.783627740629379e-15
lhumerus -61.08469310126232 -12.545202548319788 100.14099148708108
lradius 104.07300444904128
lwrist 33.45060031305122
lhand -25.856195481089546 0.7974909758354536
lfingers 7.12502
lthumb 0.684611519400963 30.77610395177544
rclavicle -1.7288339579140553e-15 1.783627740629379e-15
rhumerus -48.45430221697046 14.403489815674888 -101.75298744529049
rradius 104.67300786406638
rwrist -7.877918230301855
rhand -19.721584468400557 40.739094005457744
rfingers 7.12502
rthumb 6.608565532168662 10.86219468936517
20
root -0.6466339103870664 17.47490431414389 -12.685891039268492 -1.142003884183656 6.63226503288362 -2.5196102223006083
lfemur -22.37229655418441 -3.797762318587235 -23.29889628152626
ltibia 45.081003001255546
lfoot -17.15248826865023 -7.689818902664648
ltoes 2.0965073225176187
rfemur -13.30770288516755 -3.7861098897905276 23.90240920158558
rtibia 102.40698647708163
rfoot 20.9978891398462 -9.95280439973143
rtoes 15.041692191438207
lowerback 16.84359273138025 1.0303288417645033 0.9001372992779871
upperback 0.15045853836227496 1.6215396971318086 0.8064198388995274
thorax -9.309296525011272 0.7562996184504949 -0.03689989538283012
lowerneck -19.70270474383185 -5.254087752484087 -1.3674711134684912
upperneck 15.087891778435758 -7.553946082323309 3.969378362841346
head 8.117170200135464 -3.248607496699133 0.5904370412084002
lclavicle -1.7288340642170575e-15 1.7836277577894746e-15
lhumerus -56.90879589786926 -14.232599849969652 100.17699136519632
lradius 104.53000395767764
lwrist 34.90129571553891
lhand -24.961000402569145 0.056295737182686656
lfingers 7.12502
lthumb 1.5492695971520145 30.030406436413436
rclavicle -1.7288340642170575e-15 1.7836277577894746e-15
rhumerus -49.23730147087694 13.324791676259078 -101.86498716016362
rradius 101.65501299726837
rwrist -6.520573173385253
rhand -22.246571700123983 37.443715014804695
rfingers 7.12502
rthumb 4.170698307340958 7.504846518230566
21
root -0.5092591049442807 17.292654334742462 -3.847909372671028 0.8672577442150176 4.225225503579434 -0.34921791548304526
lfemur -20.169430161985833 0.5113169325194988 -25.257166264426605
ltibia 53.806983111962914
lfoot -17.51827980808125 -0.803309350123687
ltoes 2.0540350922656447
rfemur -18.75829854047694 -4.42388361606543 22.72991768889237
rtibia 114.63206413446278
rfoot 13.687880169058271 -8.86248628051506
rtoes 21.65940754258433
lowerback 17.459866927732655 1.6494045079998343 -1.474617602877774
upperback -0.23225317587773842 1.9389321929246064 0.05469027234181567
thorax -10.264949275623803 0.9887645881759779 1.0944560870033189
lowerneck -20.497267013918087 -5.02075309109747 -1.5290688751531816
upperneck 14.043209369485005 -7.12127412767676 3.932456549105555
head 7.861612362322592 -3.0881871103924485 0.8699412322073373
lclavicle -6.685357069939329e-16 2.5527075835319323e-15
lhumerus -51.85868086098968 -18.347395275334037 100.60766426250954
lradius 106.47513336592773
lwrist 32.323937705227294
lhand -25.171240100449968 3.747630650744827
lfingers 7.12502
lthumb 1.3461754580397516 33.71154406467289
rclavicle -6.685357069939329e-16 2.5527075835319323e-15
rhumerus -47.87247242827953 8.318899096018335 -100.68668709687638
rradius 101.3309119570891
rwrist -7.682392718445104
rhand -18.016735828440684 38.813502742211526
rfingers 7.12502
rthumb 8.253678885073363 8.822472980449028
22
root -0.46904395010651967 17.10960334200475 -7.220000715652576 1.5639173329940017 4.156124932057854 0.5345510225211445
lfemur -18.300286774890754 0.601960754298418 -26.392093885939893
ltibia 53.09809257062118
lfoot -23.043599745518513 2.1185861035845077
ltoes 0.5055114259309921
rfemur -26.261385258874377 -5.195473526661514 20.80003938791502
rtibia 117.54092472326116
rfoot 10.397966264183237 -7.941237932657227
rtoes 18.40516055194687
lowerback 17.79722450055042 1.579628507640476 -2.803709694549834
upperback -0.1626041818275944 1.596691215821578 -0.24792701388568927
thorax -10.461474529099961 0.8818076228334104 1.5676989871502376
lowerneck -21.111120966538 -4.805360605387316 -1.556610198568831
upperneck 13.373688524248164 -6.777837978419285 4.081579979621877
head 7.750830224857047 -2.924644669337714 0.9418373176144398
lclavicle -1.5538808817760483e-15 1.910574813814972e-15
lhumerus -47.32135303022973 -20.705079589374574 100.90297464990499
lradius 106.50143852010167
lwrist 31.834225820628344
lhand -25.136849237396127 3.336731695849361
lfingers 7.12502
lthumb 1.37939933429286 33.298693815306564
rclavicle -1.5538808817760483e-15 1.910574813814972e-15
rhumerus -49.30887369080315 6.860205187163828 -100.88107995227749
rradius 99.71093016744652
rwrist -8.321586827818765
rhand -17.525533726808778 38.54389821596171
rfingers 7.12502
rthumb 8.727569892272237 8.66421724071005
23
root -0.4446093057414946 16.99336399375736 -7.788887844311633 2.1019123666115274 3.6127565443529797 0.8424867519404042
lfemur -15.820700515863548 0.1943771331743686 -27.118233714661176
ltibia 51.872238024726116
lfoot -25.387881846545483 3.338603501974636
ltoes -2.783346671435333
rfemur -33.87137009724214 -5.797276019855904 19.892398870945126
rtibia 117.58803235920583
rfoot 6.22323093841993 -7.398828973388236
rtoes 15.37109676163576
lowerback 17.870752505095254 1.2523856013163577 -3.5677033491399675
upperback -0.2472778553922539 1.0268930496114725 -0.31763687691475706
thorax -10.628604958595552 0.6540662748494506 1.9370383216041387
lowerneck -21.56279451876019 -4.540954458776912 -1.5810570124751906
upperneck 12.892261630519581 -6.43821615191205 4.122544169106778
head 7.662389215431094 -2.7382302965620777 0.9817817146804573
lclavicle -2.7562867460213404e-15 1.0384477332001667e-15
lhumerus -43.546396992046255 -22.42268112870071 100.74660826285844
lradius 106.96452594368525
lwrist 31.993130964015364
lhand -25.19971995430278 2.568417264824873
lfingers 7.12502
lthumb 1.3187069511553027 32.532292559592626
rclavicle -2.7562867460213404e-15 1.0384477332001667e-15
rhumerus -51.78529383961133 5.818530633430708 -101.13033822901494
rradius 99.66071664235604
rwrist -9.351495531869814
rhand -17.217498458974653 38.57788933559914
rfingers 7.12502
rthumb 9.024804513505137 8.690163883204642
24
root -0.4044526357748055 17.060862828676434 -7.385760477732829 2.740492553020503 3.4746218571497107 1.0562004421049198
lfemur -11.838120085765572 -0.07337040290425662 -27.13275753055247
ltibia 50.95211611803865
lfoot -25.192256303474334 4.38382085946574
ltoes -7.343280758641811
rfemur -39.42033938632267 -6.442033216780315 20.110482492909163
rtibia 118.76006795230597
rfoot 4.853954957195995 -6.127137825131867
rtoes 12.219556155191322
lowerback 17.747778231714943 0.8719453798696903 -3.8020986752911616
upperback -0.24336021269755204 0.4782417729659769 -0.1282056949892072
thorax -10.56880768305455 0.4196795414214284 2.5379967747430654
lowerneck -21.820502296825293 -4.194338455373341 -1.5456484943560027
upperneck 12.817074062938056 -5.9178144473291745 3.9362628846611987
head 7.642361653095415 -2.5095299266195745 0.9636318225725561
lclavicle -2.3609423101064706e-15 1.32518135501335e-15
lhumerus -39.93012737205773 -22.671255161081767 100.44393443372319
lradius 108.77863224315102
lwrist 32.08902583515279
lhand -24.887636130708334 2.663751920870494
lfingers 7.12502
lthumb 1.6201048490334493 32.62679064492894
rclavicle -2.3609423101064706e-15 1.32518135501335e-15
rhumerus -53.553684932243236 5.874780397393705 -101.09748792687176
rradius 100.70117966018607
rwrist -10.41006746164777
rhand -16.912372675474067 38.835281396737535
rfingers 7.12502
rthumb 9.319242405562273 8.910520741445065
